<svg width="98" height="48" viewBox="0 0 98 48" fill="none" xmlns="http://www.w3.org/2000/svg">
<path d="M37.5839 16.7193C36.3496 14.3822 34.5333 12.4397 32.2494 11.0317C28.9007 16.2695 27.6049 22.8361 29.1252 29.5313C29.7498 32.2831 30.8333 34.7824 32.2651 36.9926C33.9848 35.868 35.5338 34.3338 36.9024 32.391C37.0417 32.1934 37.1761 31.9889 37.3621 31.7065C37.441 31.5869 37.531 31.4506 37.6286 31.3035C36.1204 28.1968 35.5561 24.5633 36.2234 20.8159C36.4804 19.3735 36.9486 18.001 37.5839 16.7193Z" fill="#178489"/>
<path d="M76.2151 20.0131C74.2278 7.58164 62.3679 -1.95723 48.6427 0.332114C45.2095 0.904827 42.0961 2.13574 39.3984 3.86837C39.8182 4.18856 40.2297 4.52174 40.6305 4.86972C42.1831 6.21662 43.5539 7.7369 44.7213 9.38889C47.8788 7.67619 51.558 6.94791 55.1734 7.62242C63.6172 9.19738 69.1148 15.8102 69.126 24.4259C69.135 31.5126 69.1278 38.5997 69.1278 45.687V47.9636H76.6039V45.5402C76.6039 38.6278 76.6265 31.715 76.587 24.8032C76.5779 23.205 76.467 21.5902 76.2151 20.0131Z" fill="#178489"/>
<path d="M67.2163 31.8506C66.8269 32.4354 66.6103 32.7773 66.3771 33.1075C62.4705 38.6537 57.0832 41.2064 50.3955 40.3763C50.0572 40.3343 49.7238 40.2806 49.3939 40.2196C49.3924 41.993 49.3906 43.7667 49.3906 45.5401V47.7385C55.186 48.5381 61.3076 47.2749 66.4989 43.4722C66.8683 43.2018 67.1764 42.5877 67.1852 42.1277C67.245 39.0222 67.2163 35.9139 67.2163 32.8069V31.8506Z" fill="#178489"/>
<path d="M89.8973 0.281934C83.6346 1.02471 78.55 4.05169 74.506 8.87082C74.1266 9.32301 74.1184 9.6592 74.4256 10.1452C75.7396 12.2243 76.7346 14.581 77.5263 17.0688C77.5819 17.2431 77.6855 17.3987 77.6931 17.4144C78.7829 15.873 79.7416 14.1899 81.01 12.7868C84.2629 9.18738 88.426 7.47981 93.265 7.41185C94.6808 7.39221 96.0975 7.40883 97.5583 7.40883V0.233C94.9548 0.233 92.3936 -0.0143901 89.8973 0.281934Z" fill="#0E77A3"/>
<path d="M48.103 23.6021C48.0794 23.001 48.0405 22.3993 47.9837 21.8003C47.9459 21.401 47.9 21.0026 47.8457 20.6063C47.8185 20.4078 47.7892 20.2103 47.7578 20.013C47.7578 20.013 47.7574 20.0121 47.7574 20.0115C47.7278 19.827 47.6958 19.6433 47.6623 19.4599C47.6508 19.3992 47.6384 19.3388 47.6267 19.2781C47.6031 19.1552 47.5792 19.0328 47.5536 18.9108C47.5385 18.8389 47.5221 18.7673 47.5067 18.6954C47.4823 18.5849 47.4578 18.4746 47.4318 18.3644C47.4143 18.2891 47.3959 18.2142 47.3775 18.1393C47.3515 18.0333 47.3249 17.9273 47.2974 17.8216C47.2778 17.7454 47.2572 17.6696 47.2367 17.5941C47.2086 17.4896 47.1796 17.3854 47.1497 17.2815C47.1286 17.2065 47.1068 17.1316 47.0844 17.0567C47.0533 16.9516 47.021 16.8465 46.9884 16.742C46.9657 16.6698 46.9437 16.5979 46.9204 16.526C46.8851 16.417 46.8488 16.3085 46.812 16.1998C46.7893 16.1336 46.7676 16.0672 46.7446 16.001C46.702 15.8796 46.6579 15.7591 46.6138 15.6382C46.5945 15.5863 46.5761 15.534 46.5567 15.4818C46.4918 15.3087 46.425 15.1365 46.3559 14.9649C46.3559 14.9649 46.3556 14.9643 46.3556 14.9637C46.287 14.794 46.2166 14.6248 46.1441 14.4566C46.1218 14.4043 46.0982 14.353 46.0753 14.3007C46.0242 14.1841 45.9729 14.0681 45.92 13.9524C45.8919 13.8908 45.8629 13.8301 45.8342 13.7688C45.785 13.6636 45.7354 13.5588 45.685 13.4543C45.6533 13.3897 45.621 13.3247 45.5886 13.2601C45.5388 13.1598 45.4886 13.0601 45.4373 12.9607C45.4041 12.8955 45.3699 12.8306 45.3358 12.7659C45.2838 12.6671 45.2313 12.569 45.1781 12.4714C45.1431 12.4074 45.108 12.3433 45.0727 12.2799C45.0177 12.1811 44.9615 12.0826 44.9051 11.9848C44.8703 11.9238 44.8356 11.863 44.8002 11.8029C44.7395 11.6996 44.6776 11.5969 44.6154 11.4948C44.5825 11.4408 44.5501 11.3867 44.5172 11.3329C44.4447 11.216 44.3707 11.0997 44.2964 10.9837C44.2722 10.9463 44.2487 10.9085 44.2245 10.8711C44.0375 10.5835 43.8442 10.3002 43.6452 10.0214C43.6304 10.0005 43.6156 9.97998 43.6007 9.95944C43.5727 9.91987 43.5434 9.8812 43.515 9.84193C43.4358 9.73349 43.3567 9.62535 43.2757 9.51812C43.2386 9.46858 43.2005 9.41965 43.1631 9.37041C43.0894 9.27436 43.0157 9.1789 42.9407 9.08405C42.8991 9.03119 42.8568 8.97863 42.8148 8.92638C42.742 8.83546 42.6686 8.74514 42.5943 8.65543C42.5508 8.60287 42.5067 8.55031 42.4629 8.49805C42.388 8.40924 42.3125 8.32104 42.2366 8.23314C42.1922 8.18209 42.1475 8.13074 42.1028 8.08C42.0246 7.99119 41.9451 7.90299 41.8657 7.81509C41.8222 7.76736 41.779 7.71963 41.7352 7.67191C41.6497 7.57948 41.5633 7.48795 41.4766 7.39703C41.4374 7.35565 41.3984 7.31426 41.3591 7.27318C41.2558 7.16655 41.1513 7.06083 41.0462 6.95602C41.0223 6.93215 40.9991 6.90799 40.9749 6.88412C40.7118 6.62375 40.4427 6.36941 40.1678 6.12141C40.1349 6.09151 40.1013 6.06281 40.0684 6.03321C39.9648 5.94078 39.8606 5.84865 39.7552 5.75803C39.7114 5.72027 39.667 5.68312 39.6229 5.64566C39.5271 5.56441 39.4314 5.48376 39.335 5.40431C39.2849 5.36323 39.235 5.32306 39.1852 5.28258C39.0921 5.20707 38.9985 5.13246 38.9043 5.05815C38.852 5.01737 38.8001 4.97689 38.7472 4.93672C38.6532 4.86362 38.5584 4.79173 38.4632 4.72044C38.4131 4.68299 38.363 4.64523 38.3125 4.60808C38.3101 4.60626 38.3074 4.60445 38.305 4.60264C38.2068 4.53044 38.108 4.45946 38.0086 4.38878C37.9582 4.35283 37.9078 4.31628 37.8567 4.28064C37.7498 4.20573 37.6419 4.13232 37.5338 4.05892C37.4897 4.02932 37.4462 3.99881 37.4018 3.96951C37.2719 3.88282 37.1411 3.79794 37.0094 3.71366C36.9862 3.69886 36.9635 3.68376 36.9405 3.66896C36.6252 3.46899 36.3047 3.27628 35.9794 3.09081C35.9407 3.06906 35.9017 3.04761 35.8631 3.02587C35.7411 2.9573 35.6187 2.88933 35.4955 2.82288C35.4435 2.79479 35.3913 2.7676 35.339 2.73981C35.2275 2.68091 35.1161 2.62231 35.0034 2.56492C34.9457 2.53562 34.8877 2.50662 34.8297 2.47792C34.7213 2.42355 34.6125 2.37039 34.5035 2.31783C34.4428 2.28853 34.3821 2.25983 34.321 2.23114C34.2126 2.18009 34.1036 2.12994 33.9942 2.08071C33.9329 2.05292 33.8719 2.02543 33.8103 1.99824C33.6985 1.94901 33.5861 1.90068 33.4735 1.85295C33.4143 1.82788 33.3547 1.80251 33.2952 1.77804C33.175 1.7282 33.0539 1.67987 32.9325 1.63214C32.8802 1.6116 32.8283 1.59046 32.776 1.57022C32.6313 1.51464 32.486 1.46057 32.3404 1.40771C32.3105 1.39684 32.2809 1.38536 32.251 1.37478C32.071 1.31014 31.8897 1.24731 31.7079 1.1872C31.7034 1.18569 31.6991 1.18448 31.6949 1.18297C31.5215 1.12558 31.3472 1.07061 31.1723 1.01714C31.1222 1.00174 31.0714 0.987539 31.021 0.972436C30.8914 0.933772 30.7615 0.895712 30.631 0.859464C30.5679 0.841945 30.5045 0.825029 30.441 0.807811C30.322 0.775793 30.2027 0.744076 30.0831 0.713869C30.0142 0.696652 29.9447 0.679736 29.8756 0.662821C29.7605 0.634729 29.6451 0.607543 29.5294 0.581263C29.4575 0.56465 29.3853 0.548641 29.3128 0.532933C29.1984 0.508164 29.0833 0.483999 28.9682 0.46074C28.8954 0.445939 28.8226 0.43144 28.7495 0.417545C28.632 0.39489 28.5145 0.373444 28.3964 0.352601C28.3254 0.340217 28.2547 0.32753 28.1834 0.315749C28.059 0.294907 27.9339 0.275575 27.8086 0.256847C27.7436 0.247181 27.679 0.236609 27.614 0.227245C27.4681 0.206704 27.3213 0.187977 27.1742 0.169853C27.1298 0.164416 27.0854 0.158072 27.041 0.152937C26.848 0.130282 26.6544 0.110044 26.4598 0.0922223C26.4281 0.0892017 26.3964 0.0870872 26.3647 0.0843686C26.2037 0.0701717 26.0424 0.0568808 25.8802 0.0460065C25.8134 0.0417776 25.7461 0.038455 25.679 0.0345281C25.5512 0.0269765 25.4235 0.019727 25.2951 0.0139878C25.2187 0.0109671 25.1416 0.00855065 25.0649 0.00613414C24.9456 0.00220731 24.8263 -0.00141745 24.7064 -0.00383396C24.6248 -0.00534428 24.5429 -0.00594841 24.4608 -0.00655254C24.3949 -0.00715666 24.3294 -0.00866699 24.2632 -0.00866699H24.2626C24.2336 -0.00866699 24.2037 -0.00715667 24.1744 -0.00715667C23.8826 -0.00594842 23.5899 -0.000511277 23.2957 0.0112692C23.2522 0.0130816 23.2084 0.0158002 23.1649 0.0179146C22.8922 0.0302992 22.6185 0.0472148 22.3439 0.0689634C22.2932 0.0728902 22.2427 0.0762129 22.192 0.0804418C21.8957 0.105815 21.5984 0.136928 21.3 0.173175C21.2363 0.180727 21.1722 0.189185 21.1085 0.197643C20.8016 0.237213 20.4941 0.28071 20.1854 0.332061C19.7178 0.409993 19.2568 0.500612 18.8016 0.603012C18.3467 0.70511 17.8978 0.81929 17.4553 0.944344C17.1672 1.0256 16.882 1.11199 16.5996 1.20291C16.257 1.31316 15.9187 1.43006 15.5846 1.55391C15.3433 1.64362 15.1041 1.73666 14.8669 1.83302C14.3042 2.06228 13.7541 2.31058 13.2171 2.5776C13.037 2.66732 12.8585 2.75884 12.6815 2.85218C12.403 2.99959 12.1272 3.15032 11.8563 3.30739C11.5672 3.47534 11.2836 3.64993 11.0029 3.82905C10.7184 4.01059 10.4378 4.19787 10.1623 4.39059C9.87896 4.58874 9.59925 4.79173 9.32618 5.00136C9.09329 5.17958 8.86584 5.36323 8.6408 5.54961C8.1143 5.98518 7.60804 6.441 7.12384 6.91705C6.96253 7.07594 6.80365 7.23663 6.64718 7.39975C6.49101 7.56286 6.33787 7.72779 6.18683 7.89483C5.93431 8.17364 5.68782 8.45818 5.44919 8.74816C5.32263 8.90221 5.19848 9.05747 5.07584 9.21424C4.8653 9.48399 4.66171 9.75947 4.46296 10.038C4.39409 10.1343 4.32642 10.231 4.25937 10.3286C3.84312 10.9312 3.45346 11.5519 3.09461 12.1911C2.59499 13.0804 2.15277 14.0032 1.77006 14.9541C1.57915 15.4292 1.40275 15.9119 1.24205 16.4006C1.08135 16.8894 0.935757 17.3848 0.806172 17.8856C0.667223 18.4224 0.544887 18.9655 0.442789 19.5146C0.373315 19.8889 0.313506 20.2659 0.261551 20.6452C0.230137 20.8736 0.201138 21.1029 0.176369 21.333C0.154319 21.5372 0.134684 21.7417 0.117769 21.9471C0.0848439 22.3492 0.0618871 22.7536 0.0488984 23.1599C0.0485963 23.1726 0.0479922 23.185 0.047388 23.1977C0.0347014 23.6091 0.0325869 24.0223 0.0407426 24.4377C0.0531272 25.0659 0.0893749 25.6988 0.150996 26.3343C0.171234 26.5461 0.194795 26.7581 0.220773 26.9708C0.246448 27.1831 0.275446 27.3958 0.306861 27.6087C0.401709 28.2479 0.521628 28.8892 0.667525 29.5314C0.667525 29.532 0.667827 29.5329 0.667827 29.5335C0.739718 29.8503 0.819765 30.1627 0.903739 30.4729C0.927904 30.5617 0.952975 30.6499 0.978046 30.7381C1.04631 30.9788 1.1179 31.2172 1.19312 31.4537C1.21698 31.5286 1.23994 31.6044 1.2644 31.679C1.36288 31.9784 1.46679 32.2747 1.57643 32.5671C1.59849 32.6263 1.62235 32.684 1.6447 32.7426C1.73683 32.9815 1.83198 33.2183 1.93106 33.4521C1.9667 33.5364 2.00265 33.6207 2.0392 33.7044C2.14613 33.949 2.25638 34.1904 2.37086 34.4296C2.3911 34.4716 2.41013 34.5148 2.43037 34.5565C2.56479 34.8326 2.70525 35.1047 2.84963 35.3733C2.8886 35.4464 2.92908 35.518 2.96895 35.5905C3.08283 35.7971 3.19942 36.0013 3.31904 36.2033C3.36224 36.2764 3.40513 36.3495 3.44893 36.422C3.6063 36.6809 3.767 36.9371 3.93344 37.1884C3.95217 37.2168 3.9718 37.2439 3.99053 37.272C4.14096 37.4971 4.29561 37.7185 4.45359 37.9375C4.50555 38.0097 4.55811 38.081 4.61066 38.1526C4.75294 38.3453 4.89823 38.5353 5.04594 38.7235C5.08762 38.776 5.1284 38.8298 5.17039 38.8823C5.35646 39.1146 5.54706 39.3427 5.74129 39.5671C5.78811 39.6212 5.83584 39.6737 5.88326 39.7269C6.03852 39.903 6.1962 40.0764 6.35629 40.2474C6.4164 40.3114 6.47621 40.3754 6.53693 40.4389C6.72813 40.6379 6.92145 40.8343 7.119 41.0264C7.13562 41.0427 7.15132 41.0596 7.16824 41.0753C7.38119 41.2816 7.59898 41.4822 7.81919 41.6798C7.88232 41.7368 7.94666 41.7924 8.01039 41.8486C8.18166 41.999 8.35505 42.147 8.53024 42.2926C8.59126 42.3431 8.65137 42.3941 8.71269 42.444C8.94105 42.6294 9.17183 42.811 9.40653 42.988C9.44882 43.02 9.49201 43.0502 9.53461 43.0822C9.73246 43.2293 9.93242 43.3734 10.1345 43.5145C10.207 43.5649 10.2798 43.6151 10.3526 43.6646C10.5544 43.8021 10.758 43.9365 10.9637 44.0682C11.0102 44.0978 11.0561 44.1289 11.1029 44.1579C11.3512 44.3144 11.6022 44.4654 11.8557 44.6125C11.9233 44.6518 11.9913 44.6895 12.0593 44.7279C12.2568 44.8402 12.4556 44.9499 12.6561 45.0565C12.7313 45.0964 12.806 45.1366 12.8815 45.1758C13.1425 45.3112 13.4056 45.4435 13.6711 45.5697C13.6877 45.5779 13.7046 45.5848 13.7212 45.5927C13.9725 45.7114 14.2263 45.8247 14.4812 45.9349C14.5609 45.9694 14.6407 46.0029 14.7207 46.0361C14.9334 46.1252 15.1473 46.2113 15.362 46.295C15.4291 46.321 15.4958 46.3475 15.5632 46.3729C15.8372 46.4765 16.1126 46.5753 16.3902 46.6689C16.4516 46.6895 16.5138 46.7088 16.5751 46.729C16.7992 46.8028 17.0243 46.8734 17.2505 46.9405C17.3342 46.9656 17.4179 46.99 17.5018 47.0142C17.7522 47.0861 18.0033 47.1541 18.2558 47.2178C18.2917 47.2272 18.3274 47.2374 18.3636 47.2462C18.6488 47.3169 18.936 47.3812 19.2239 47.4419C19.3036 47.4588 19.3837 47.4742 19.4631 47.4902C19.6867 47.535 19.9108 47.5766 20.1352 47.615C20.2147 47.6289 20.2938 47.6431 20.3733 47.6558C20.6641 47.7029 20.9553 47.7455 21.2477 47.782C21.2891 47.7872 21.3302 47.7908 21.3713 47.7956C21.6265 47.8265 21.8824 47.8524 22.1388 47.8748C22.2255 47.8826 22.3125 47.8896 22.3992 47.8959C22.6384 47.9146 22.8777 47.9295 23.1175 47.9406C23.1791 47.9436 23.2407 47.9476 23.3024 47.9503C23.5969 47.9618 23.8917 47.9678 24.1868 47.9687C24.2092 47.9687 24.2312 47.9702 24.2533 47.9702C24.3149 47.9702 24.3768 47.9672 24.4384 47.9666C24.6281 47.9651 24.8181 47.9618 25.0081 47.956C25.106 47.9527 25.2042 47.9488 25.302 47.9449C25.4869 47.9364 25.6718 47.9258 25.8566 47.9134C25.9491 47.9074 26.0415 47.9017 26.1336 47.8944C26.3593 47.8766 26.5849 47.8551 26.8102 47.8307C26.8583 47.8252 26.9063 47.8216 26.9543 47.8162C27.2265 47.7851 27.4986 47.7485 27.7702 47.7077C27.8472 47.6963 27.9239 47.6824 28.001 47.67C28.1979 47.6389 28.3949 47.6053 28.5912 47.5685C28.6867 47.551 28.7821 47.5316 28.8776 47.5126C29.0603 47.4764 29.2431 47.4374 29.4255 47.3963C29.5188 47.3755 29.6125 47.3543 29.7058 47.3323C29.9109 47.2836 30.1151 47.2311 30.3193 47.177C30.3855 47.1592 30.4519 47.1429 30.5178 47.1248C30.786 47.0508 31.0533 46.9716 31.3197 46.8873C31.382 46.8677 31.4439 46.8459 31.5061 46.8254C31.7112 46.759 31.9157 46.6898 32.1196 46.617C32.2105 46.5847 32.3015 46.5502 32.3924 46.5167C32.5706 46.4502 32.7485 46.382 32.9258 46.311C33.0186 46.2741 33.111 46.237 33.2034 46.1986C33.3919 46.1204 33.5798 46.0388 33.7668 45.9552C33.8414 45.9216 33.9166 45.8899 33.9909 45.8558C34.2501 45.7365 34.508 45.6132 34.7645 45.4833C34.8041 45.4634 34.8433 45.4414 34.8829 45.4214C35.0995 45.3103 35.3151 45.1958 35.5296 45.0771C35.6136 45.0305 35.6973 44.9822 35.7809 44.9345C35.9531 44.8363 36.1244 44.736 36.295 44.6333C36.3841 44.5793 36.473 44.5249 36.5618 44.4699C36.7345 44.3624 36.9064 44.2515 37.0774 44.1386C37.1553 44.0872 37.2335 44.0371 37.3112 43.9848C37.5562 43.819 37.7996 43.6495 38.041 43.4728L38.0416 43.4722C38.0875 43.4387 38.1328 43.3994 38.1766 43.3556C38.2023 43.3302 38.2261 43.3003 38.2509 43.2719C38.3183 43.1943 38.3811 43.107 38.4379 43.014C38.4805 42.9442 38.5197 42.8714 38.5542 42.7968C38.6584 42.573 38.7236 42.3352 38.7279 42.1277C38.7614 40.3806 38.7668 38.6328 38.7656 36.8851C38.7647 36.3027 38.7635 35.72 38.7623 35.1374C38.7611 34.5163 38.7596 33.8959 38.7596 33.2748C38.7596 33.119 38.759 32.9631 38.759 32.8069V31.8506C38.71 31.9237 38.6641 31.9929 38.6206 32.059C38.5587 32.1521 38.5019 32.2381 38.4488 32.3191C38.3953 32.4001 38.3457 32.4756 38.2986 32.5472C38.2929 32.5559 38.2862 32.5656 38.2805 32.5743C38.1814 32.7242 38.0935 32.8562 38.0065 32.9827C37.9775 33.025 37.9485 33.0664 37.9195 33.1075C37.9183 33.1093 37.9171 33.1108 37.9162 33.1126C37.8023 33.2742 37.6869 33.4328 37.5703 33.5893C37.532 33.6412 37.4924 33.692 37.4534 33.7433C37.3737 33.8491 37.2934 33.9539 37.2121 34.0572C37.1662 34.1158 37.1191 34.1738 37.0725 34.2318C36.9976 34.3254 36.9221 34.4181 36.8463 34.5097C36.7962 34.5695 36.746 34.6287 36.6959 34.6876C36.621 34.7758 36.5454 34.8631 36.4696 34.9492C36.4189 35.0069 36.3684 35.064 36.3174 35.1204C36.2389 35.2077 36.16 35.2932 36.0806 35.3781C36.0313 35.431 35.9824 35.4838 35.9329 35.5358C35.8456 35.6267 35.7574 35.7161 35.6689 35.8049C35.6266 35.8478 35.5846 35.891 35.542 35.9333C35.416 36.0574 35.2889 36.1795 35.1605 36.2988C35.1547 36.3039 35.1496 36.3094 35.1439 36.3148C35.0092 36.4396 34.8729 36.5616 34.7358 36.6809C34.6956 36.7162 34.6545 36.7498 34.6141 36.7842C34.5171 36.8676 34.4195 36.95 34.321 37.0304C34.2703 37.0718 34.2193 37.1119 34.1682 37.1524C34.0785 37.224 33.9885 37.2953 33.8976 37.3645C33.8429 37.4062 33.7879 37.4472 33.7329 37.488C33.6438 37.5545 33.5544 37.6197 33.4644 37.6838C33.4085 37.7236 33.3523 37.7635 33.2958 37.8022C33.2037 37.8662 33.111 37.9284 33.0179 37.99C33.0025 38.0006 32.9874 38.0106 32.972 38.0206C32.9331 38.0462 32.8941 38.0725 32.8548 38.0979C32.7533 38.1634 32.6506 38.2269 32.5479 38.2897C32.5011 38.3181 32.4549 38.3477 32.4081 38.3758C32.2679 38.4592 32.1269 38.5404 31.9849 38.6192C31.9749 38.625 31.9647 38.6313 31.9544 38.6368C31.8006 38.7216 31.6454 38.8035 31.4889 38.8829C31.4469 38.9044 31.404 38.924 31.362 38.9449C31.2485 39.0014 31.1343 39.0569 31.0195 39.1101C30.9633 39.1358 30.9068 39.1608 30.8506 39.1859C30.7482 39.2321 30.6455 39.2774 30.5419 39.3212C30.4803 39.3469 30.4187 39.3723 30.3571 39.3974C30.2568 39.4378 30.1559 39.4774 30.0547 39.5164C29.9913 39.5402 29.9275 39.5641 29.8638 39.5877C29.7614 39.6251 29.6581 39.6611 29.5548 39.6964C29.4926 39.7175 29.4303 39.739 29.3678 39.7592C29.2566 39.7955 29.1446 39.8296 29.0322 39.8637C28.9769 39.8801 28.9223 39.8976 28.8667 39.9136C28.7229 39.9547 28.5782 39.9936 28.4326 40.0311C28.4082 40.0374 28.3837 40.0444 28.3592 40.0507C28.1879 40.0933 28.0158 40.1332 27.8424 40.1703C27.795 40.1806 27.7469 40.1894 27.6992 40.199C27.5735 40.2247 27.4476 40.2498 27.3207 40.2724C27.2564 40.2839 27.1914 40.2939 27.1265 40.3051C27.015 40.3232 26.9033 40.3413 26.7909 40.3573C26.7205 40.3679 26.6495 40.3769 26.5786 40.3863C26.4701 40.4005 26.3608 40.4138 26.2514 40.4259C26.1789 40.4337 26.1061 40.4416 26.033 40.4485C25.9225 40.4591 25.8113 40.4688 25.7002 40.4772C25.628 40.4827 25.5564 40.4884 25.4842 40.4932C25.3664 40.5005 25.2477 40.5062 25.1289 40.5114C25.0628 40.5144 24.9972 40.518 24.9308 40.5198C24.784 40.5247 24.6363 40.5268 24.488 40.528C24.4493 40.5283 24.4109 40.5298 24.372 40.5298C24.2581 40.5298 24.1427 40.5265 24.0282 40.5247C23.9433 40.5229 23.8594 40.5232 23.7742 40.5204C23.6567 40.5168 23.5377 40.5096 23.4193 40.5038C23.3359 40.4996 23.2531 40.4972 23.1692 40.492C23.0378 40.4836 22.9049 40.4718 22.7725 40.4609C22.7007 40.4549 22.6297 40.4507 22.5575 40.444C22.3521 40.4247 22.1458 40.402 21.9379 40.3764C20.2488 40.1667 18.6633 39.7212 17.2061 39.0775C16.3316 38.6914 15.5037 38.2338 14.7271 37.7131C13.1168 36.6326 11.7285 35.2802 10.6112 33.7279C10.4514 33.5065 10.297 33.2806 10.1487 33.0507C9.55484 32.1321 9.05161 31.1513 8.64805 30.1225C8.54716 29.8651 8.45231 29.6048 8.36411 29.342C7.65758 27.2372 7.35824 24.9524 7.53917 22.5954C7.58418 22.006 7.65939 21.4125 7.76572 20.8159C7.81133 20.5604 7.86419 20.3075 7.92249 20.0562C7.94152 19.9744 7.96418 19.894 7.98441 19.8125C8.0264 19.6442 8.06929 19.4763 8.11702 19.3101C8.14451 19.2144 8.17502 19.1201 8.20401 19.0253C8.25053 18.8748 8.29765 18.725 8.3484 18.5764C8.38223 18.4779 8.41818 18.3804 8.45382 18.2825C8.50608 18.1399 8.55985 17.9977 8.61633 17.8566C8.655 17.7587 8.69547 17.6618 8.73625 17.5648C8.79546 17.4252 8.85677 17.2869 8.91991 17.1495C8.9628 17.0552 9.0063 16.9613 9.0513 16.8679C9.11866 16.7281 9.18904 16.59 9.26063 16.4523C9.30594 16.365 9.35065 16.2771 9.39747 16.1904C9.47691 16.0445 9.56028 15.9007 9.64395 15.7569C9.68745 15.682 9.72974 15.6062 9.77475 15.5322C9.88168 15.3555 9.99314 15.1818 10.107 15.0093C10.1321 14.9713 10.1553 14.932 10.181 14.8943C10.3227 14.6825 10.4698 14.4744 10.6214 14.2699C10.6538 14.2264 10.6879 14.1841 10.7208 14.1409C10.8404 13.9826 10.9619 13.8255 11.0869 13.6715C11.1407 13.6053 11.1966 13.541 11.2512 13.4761C11.3594 13.3474 11.4678 13.2193 11.5796 13.094C11.6424 13.0233 11.7067 12.9541 11.7711 12.8846C11.8789 12.7674 11.9877 12.6514 12.0988 12.5372C12.1668 12.4672 12.236 12.3983 12.3054 12.3294C12.4172 12.2189 12.5299 12.1095 12.6444 12.002C12.7153 11.9352 12.7869 11.8688 12.8591 11.8032C12.9772 11.696 13.0971 11.5909 13.218 11.487C13.2893 11.4257 13.3605 11.364 13.4327 11.3039C13.5617 11.1967 13.6931 11.0925 13.8251 10.9889C13.8919 10.9363 13.9583 10.8828 14.026 10.8312C14.1794 10.7146 14.3356 10.6019 14.4927 10.4902C14.5413 10.4557 14.589 10.4198 14.6383 10.3856C15.0563 10.0954 15.4874 9.82351 15.929 9.57098C15.9903 9.53625 16.0528 9.50362 16.1145 9.46949C16.2733 9.38129 16.4325 9.29399 16.5941 9.21122C16.673 9.17045 16.753 9.13208 16.8325 9.09282C16.9793 9.02002 17.1267 8.94843 17.2756 8.87986C17.3623 8.83999 17.4499 8.80163 17.5372 8.76326C17.6816 8.69983 17.8266 8.63791 17.9725 8.5784C18.0631 8.54155 18.154 8.5056 18.2452 8.47026C18.3914 8.41378 18.5385 8.3594 18.6859 8.30715C18.7775 8.27452 18.8687 8.2422 18.9608 8.21139C19.1127 8.16034 19.2656 8.11262 19.4187 8.0661C19.5075 8.03922 19.5957 8.01143 19.6846 7.98605C19.8501 7.93893 20.0171 7.89604 20.1842 7.85405C20.2615 7.83442 20.3385 7.81327 20.4165 7.79485C20.6327 7.7438 20.8502 7.69788 21.0689 7.6559C21.0976 7.65046 21.1263 7.64321 21.1553 7.63808C21.4042 7.59156 21.6543 7.55138 21.9056 7.51695C21.9721 7.50758 22.0391 7.50185 22.1056 7.49369C22.2886 7.47073 22.4714 7.44959 22.6553 7.43328C22.7481 7.42482 22.8414 7.41999 22.9345 7.41364C23.093 7.40247 23.2513 7.3922 23.4102 7.38616C23.5126 7.38193 23.6156 7.38072 23.7183 7.37891C23.8712 7.37619 24.024 7.37437 24.1774 7.37649C24.2738 7.3774 24.3702 7.37981 24.4668 7.38283C24.6233 7.38767 24.7795 7.39552 24.9362 7.40549C25.0314 7.41153 25.1262 7.41697 25.2214 7.42482C25.3893 7.43871 25.5573 7.45654 25.7255 7.47617C25.8071 7.48584 25.8886 7.49369 25.9705 7.50456C26.2182 7.53749 26.4662 7.57585 26.7136 7.62176C26.7145 7.62207 26.7154 7.62207 26.716 7.62237C28.2372 7.90601 29.662 8.35427 30.9766 8.94782C31.4149 9.14568 31.8408 9.35984 32.254 9.58911C32.4902 9.7205 32.7222 9.85673 32.95 9.9978C33.2279 10.17 33.4991 10.3497 33.764 10.5364C33.996 10.6998 34.2226 10.8686 34.444 11.0429C35.9951 12.2627 37.2924 13.7434 38.295 15.434C39.8204 18.0064 40.6641 21.0621 40.6686 24.4259C40.6728 27.9694 40.6735 31.5126 40.6728 35.0564C40.6728 35.247 40.6728 35.4379 40.6725 35.6291C40.6722 38.6911 40.671 41.7532 40.6707 44.8152C40.6707 45.1058 40.6704 45.3963 40.6704 45.6869V47.9636H48.1465V45.5401C48.1465 43.6734 48.148 41.8063 48.1495 39.9396C48.1541 34.8939 48.1583 29.8485 48.1296 24.8032C48.1272 24.4035 48.1187 24.003 48.103 23.6021Z" fill="#09B79B"/>
</svg>
